<svg width="1557" height="1474" xmlns="http://www.w3.org/2000/svg" xmlns:xlink="http://www.w3.org/1999/xlink" xml:space="preserve" overflow="hidden"><g transform="translate(-1411 -477)"><path d="M2900.03 979.532C2846.99 865.422 2767.7 763.689 2693.36 661.955 2584.21 512.399 2285.4 411.8 2044.06 526.77 1802.72 641.739 1825.68 828.565 1750.99 978.019 1676.31 1127.47 1460.78 1274.04 1429.19 1426.48 1380.53 1660.96 1417.3 1825.65 1690.64 1923.6 1898.09 1997.93 2122.66 1857.52 2325.61 1823 2460.24 1800.1 2607.44 1817.6 2736.98 1763.59 2896.04 1697.2 2949.86 1494.04 2962.48 1337.27 2968.36 1266.13 2963.95 1194.52 2949.38 1124.65 2938.49 1074.56 2921.93 1025.87 2900.03 979.532Z" fill="#1572FF" fill-rule="evenodd"/><path d="M2900.03 979.532C2846.99 865.422 2767.7 763.689 2693.36 661.955 2584.21 512.399 2285.4 411.8 2044.06 526.77 1802.72 641.739 1825.68 828.565 1750.99 978.019 1676.31 1127.47 1460.78 1274.04 1429.19 1426.48 1380.53 1660.96 1417.3 1825.65 1690.64 1923.6 1898.09 1997.93 2122.66 1857.52 2325.61 1823 2460.24 1800.1 2607.44 1817.6 2736.98 1763.59 2896.04 1697.2 2949.86 1494.04 2962.48 1337.27 2968.36 1266.13 2963.95 1194.52 2949.38 1124.65 2938.49 1074.56 2921.93 1025.87 2900.03 979.532Z" fill="#FFFFFF" fill-rule="evenodd" fill-opacity="0.701961"/><path d="M2842.25 545.5C2856.2 545.5 2867.5 545.5 2867.5 545.5L2867.5 608.5C2867.5 608.5 2856.2 608.5 2842.25 608.5L2374.75 608.5C2360.8 608.5 2349.5 608.5 2349.5 608.5L2349.5 545.5C2349.5 545.5 2360.8 545.5 2374.75 545.5Z" stroke="#000000" stroke-width="3.4375" stroke-linejoin="round" stroke-miterlimit="10" fill="none" fill-rule="evenodd"/><path d="M2787 559 2787 589" stroke="#000000" stroke-width="1.71893" stroke-linejoin="round" stroke-miterlimit="10" fill="none" fill-rule="evenodd"/><path d="M2764.5 560.5 2736.5 587.5" stroke="#000000" stroke-width="3.4375" stroke-linejoin="round" stroke-miterlimit="10" fill="none" fill-rule="evenodd"/><path d="M2736.5 560.5 2764.5 587.5" stroke="#000000" stroke-width="3.4375" stroke-linejoin="round" stroke-miterlimit="10" fill="none" fill-rule="evenodd"/><path d="M2836.04 588.633 2836.04 588.633C2835.26 589.613 2833.82 589.789 2832.82 589.026 2832.77 588.986 2832.71 588.943 2832.66 588.897L2821.5 578.979 2823.62 576.5 2835.6 585.492C2836.6 586.243 2836.8 587.646 2836.04 588.633Z" stroke="#000000" stroke-width="3.4375" stroke-linejoin="round" stroke-miterlimit="10" fill="#263238" fill-rule="evenodd"/><path d="M2806.89 564.523C2803.21 569.211 2803.85 576.139 2808.33 579.996 2812.81 583.854 2819.42 583.18 2823.11 578.492 2826.78 573.815 2826.15 566.908 2821.7 563.043 2817.26 559.167 2810.66 559.792 2806.96 564.439 2806.94 564.467 2806.91 564.495 2806.89 564.523ZM2821.94 577.524C2818.78 581.53 2813.11 582.096 2809.29 578.788 2805.46 575.48 2804.92 569.55 2808.08 565.544 2811.24 561.54 2816.9 560.973 2820.72 564.276 2824.55 567.582 2825.1 573.511 2821.94 577.519 2821.94 577.521 2821.94 577.522 2821.94 577.524Z" stroke="#000000" stroke-width="3.4375" stroke-linejoin="round" stroke-miterlimit="10" fill="none" fill-rule="evenodd"/><path d="M1871.67 660.012C1867.34 665.277 1859.58 666.017 1854.34 661.663 1854.25 661.586 1854.16 661.508 1854.07 661.429L1798.5 610.633C1800.82 608.616 1802.97 606.408 1804.93 604.033 1806.9 601.688 1808.65 599.167 1810.16 596.5L1869.74 642.354C1875.11 646.547 1876.08 654.319 1871.91 659.713 1871.83 659.814 1871.75 659.914 1871.67 660.012Z" stroke="#CCCCCC" stroke-width="3.4375" stroke-linejoin="round" stroke-miterlimit="10" fill="none" fill-rule="evenodd"/><path d="M1796.81 524.691C1803.59 530.105 1809 537.048 1812.59 544.952 1825.3 573.46 1812.5 606.875 1784 619.587 1755.51 632.299 1722.1 619.494 1709.4 590.986 1704.17 579.252 1703.09 566.084 1706.34 553.655 1714.07 523.63 1744.66 505.556 1774.68 513.287 1782.81 515.383 1790.38 519.28 1796.81 524.691ZM1798.08 598.855C1781.04 619.423 1750.57 622.282 1730.01 605.24 1709.45 588.199 1706.59 557.71 1723.63 537.141 1740.66 516.578 1771.12 513.715 1791.68 530.746 1812.25 547.753 1815.13 578.218 1798.13 598.789 1798.11 598.811 1798.1 598.833 1798.08 598.855Z" stroke="#CCCCCC" stroke-width="3.4375" stroke-linejoin="round" stroke-miterlimit="10" fill="none" fill-rule="evenodd"/><path d="M2687.13 1905.26C2683.44 1901.23 2683.66 1894.91 2687.62 1891.14 2687.7 1891.07 2687.77 1891.01 2687.85 1890.94L2733.59 1851.5C2734.93 1853.58 2736.45 1855.54 2738.12 1857.36 2739.76 1859.2 2741.56 1860.88 2743.5 1862.39L2701.23 1905.61C2697.4 1909.48 2691.21 1909.46 2687.41 1905.56 2687.31 1905.46 2687.22 1905.36 2687.13 1905.26Z" stroke="#CCCCCC" stroke-width="3.4375" stroke-linejoin="round" stroke-miterlimit="10" fill="none" fill-rule="evenodd"/><path d="M2802.59 1859.98C2797.55 1864.8 2791.45 1868.36 2784.8 1870.37 2760.28 1878.07 2734.22 1864.22 2726.61 1839.44 2718.99 1814.66 2732.69 1788.33 2757.21 1780.63 2781.73 1772.93 2807.79 1786.78 2815.41 1811.56 2820.72 1828.84 2815.74 1847.68 2802.59 1859.98ZM2743.38 1853.25C2728.77 1837.38 2729.66 1812.54 2745.36 1797.77 2761.07 1783 2785.65 1783.9 2800.27 1799.77 2814.88 1815.65 2813.99 1840.49 2798.28 1855.26 2798.27 1855.27 2798.25 1855.29 2798.24 1855.3 2782.54 1870.04 2757.98 1869.13 2743.39 1853.26 2743.39 1853.26 2743.38 1853.26 2743.38 1853.25Z" stroke="#CCCCCC" stroke-width="3.4375" stroke-linejoin="round" stroke-miterlimit="10" fill="none" fill-rule="evenodd"/><path d="M1649.5 1776.5 1570.5 1855.5" stroke="#000000" stroke-width="3.4375" stroke-linejoin="round" stroke-miterlimit="10" fill="none" fill-rule="evenodd"/><path d="M1570.5 1776.5 1649.5 1855.5" stroke="#000000" stroke-width="3.4375" stroke-linejoin="round" stroke-miterlimit="10" fill="none" fill-rule="evenodd"/><path d="M2966.5 1034.5 2887.5 1113.5" stroke="#000000" stroke-width="3.4375" stroke-linejoin="round" stroke-miterlimit="10" fill="none" fill-rule="evenodd"/><path d="M2887.5 1034.5 2966.5 1113.5" stroke="#000000" stroke-width="3.4375" stroke-linejoin="round" stroke-miterlimit="10" fill="none" fill-rule="evenodd"/><path d="M1525.5 583.5 1447.5 662.5" stroke="#000000" stroke-width="3.4375" stroke-linejoin="round" stroke-miterlimit="10" fill="none" fill-rule="evenodd"/><path d="M1447.5 583.5 1525.5 662.5" stroke="#000000" stroke-width="3.4375" stroke-linejoin="round" stroke-miterlimit="10" fill="none" fill-rule="evenodd"/><path d="M1597.5 726.5 2830.5 726.5 2830.5 1717.5 1597.5 1717.5Z" stroke="#263238" stroke-width="3.4375" stroke-linejoin="round" stroke-miterlimit="10" fill="#FFFFFF" fill-rule="evenodd"/><path d="M2669.5 1590.5 2515.63 1590.5C2507.28 1590.5 2500.5 1583.71 2500.5 1575.33L2500.5 1398.5" stroke="#263238" stroke-width="3.4375" stroke-linejoin="round" stroke-miterlimit="10" fill="#FFFFFF" fill-rule="evenodd"/><path d="M2766.5 1225.5 2766.5 1575.38C2766.48 1583.73 2759.69 1590.5 2751.31 1590.5L2684.5 1590.5" stroke="#263238" stroke-width="3.4375" stroke-linejoin="round" stroke-miterlimit="10" fill="#FFFFFF" fill-rule="evenodd"/><path d="M2500.5 1387.5 2500.5 1119.64C2500.5 1111.28 2507.26 1104.5 2515.6 1104.5 2515.61 1104.5 2515.62 1104.5 2515.63 1104.5L2751.33 1104.5C2759.69 1104.48 2766.48 1111.26 2766.5 1119.64L2766.5 1215.5" stroke="#263238" stroke-width="3.4375" stroke-linejoin="round" stroke-miterlimit="10" fill="#FFFFFF" fill-rule="evenodd"/><path d="M2766.5 1119.64 2766.5 1201.5 2500.5 1201.5 2500.5 1119.64C2500.5 1111.28 2507.26 1104.5 2515.6 1104.5 2515.61 1104.5 2515.62 1104.5 2515.63 1104.5L2751.33 1104.5C2759.69 1104.48 2766.48 1111.26 2766.5 1119.64Z" stroke="#263238" stroke-width="3.4375" stroke-linejoin="round" stroke-miterlimit="10" fill="#FFFFFF" fill-rule="evenodd"/><path d="M1597.5 726.5 2830.5 726.5 2830.5 1062.5 1597.5 1062.5Z" stroke="#263238" stroke-width="3.4375" stroke-linejoin="round" stroke-miterlimit="10" fill="#FFFFFF" fill-rule="evenodd"/><path d="M2759.08 946.905C2762.92 962.481 2753.41 978.22 2737.83 982.061 2722.26 985.901 2706.52 976.387 2702.68 960.811 2698.84 945.236 2708.35 929.496 2723.93 925.656 2739.5 921.816 2755.24 931.329 2759.08 946.905Z" stroke="#263238" stroke-width="3.4375" stroke-linejoin="round" stroke-miterlimit="10" fill="#D9D9D9" fill-rule="evenodd"/><path d="M2647 938C2647 940.209 2645.43 942 2643.5 942 2641.57 942 2640 940.209 2640 938 2640 935.791 2641.57 934 2643.5 934 2645.43 934 2647 935.791 2647 938Z" fill="#263238" fill-rule="evenodd"/><path d="M2663 938C2663 935.791 2661.21 934 2659 934 2656.79 934 2655 935.791 2655 938 2655 940.209 2656.79 942 2659 942 2661.2 941.981 2662.98 940.201 2663 938Z" fill="#263238" fill-rule="evenodd"/><path d="M2678 938C2678 935.791 2676.21 934 2674 934 2671.79 934 2670 935.791 2670 938 2670 940.209 2671.79 942 2674 942 2676.2 941.981 2677.98 940.201 2678 938Z" fill="#263238" fill-rule="evenodd"/><path d="M2647 954C2647 951.791 2645.43 950 2643.5 950 2641.57 950 2640 951.791 2640 954 2640 956.209 2641.57 958 2643.5 958 2643.51 958 2643.52 958 2643.53 958 2645.45 957.981 2647 956.195 2647 954Z" fill="#263238" fill-rule="evenodd"/><path d="M2663 954C2663 951.791 2661.21 950 2659 950 2656.79 950 2655 951.791 2655 954 2655 956.209 2656.79 958 2659 958 2661.2 957.981 2662.98 956.201 2663 954Z" fill="#263238" fill-rule="evenodd"/><path d="M2678 954C2678 951.791 2676.21 950 2674 950 2671.79 950 2670 951.791 2670 954 2670 956.209 2671.79 958 2674 958 2676.2 957.981 2677.98 956.201 2678 954Z" fill="#263238" fill-rule="evenodd"/><path d="M2647 969C2647 966.791 2645.43 965 2643.5 965 2641.57 965 2640 966.791 2640 969 2640 971.209 2641.57 973 2643.5 973 2643.51 973 2643.52 973 2643.53 973 2645.45 972.981 2647 971.195 2647 969Z" fill="#263238" fill-rule="evenodd"/><path d="M2663 969C2663 966.791 2661.21 965 2659 965 2656.79 965 2655 966.791 2655 969 2655 971.209 2656.79 973 2659 973 2661.2 972.981 2662.98 971.201 2663 969Z" fill="#263238" fill-rule="evenodd"/><path d="M2678 969C2678 966.791 2676.21 965 2674 965 2671.79 965 2670 966.791 2670 969 2670 971.209 2671.79 973 2674 973 2676.2 972.981 2677.98 971.201 2678 969Z" fill="#263238" fill-rule="evenodd"/><path d="M2461.5 965.5C2455.64 983.978 2438.74 996.499 2419.67 996.5L2019.5 996.5" stroke="#263238" stroke-width="3.4375" stroke-linejoin="round" stroke-miterlimit="10" fill="#FFFFFF" fill-rule="evenodd"/><path d="M2107.5 908.5 2419.59 908.5C2443.82 908.481 2463.48 928.165 2463.5 952.466 2463.5 952.477 2463.5 952.488 2463.5 952.5" stroke="#263238" stroke-width="3.4375" stroke-linejoin="round" stroke-miterlimit="10" fill="#FFFFFF" fill-rule="evenodd"/><path d="M2007.78 996.5 1799.39 996.5C1775.15 996.5 1755.5 976.808 1755.5 952.517 1755.5 952.506 1755.5 952.494 1755.5 952.483L1755.5 952.483C1755.5 928.192 1775.15 908.5 1799.39 908.5L2102.5 908.5" stroke="#263238" stroke-width="3.4375" stroke-linejoin="round" stroke-miterlimit="10" fill="#FFFFFF" fill-rule="evenodd"/><path d="M2352 928 2352 969" stroke="#263238" stroke-width="1.71893" stroke-linejoin="round" stroke-miterlimit="10" fill="none" fill-rule="evenodd"/><path d="M2320.5 929.5 2282.5 967.5" stroke="#263238" stroke-width="3.4375" stroke-linejoin="round" stroke-miterlimit="10" fill="none" fill-rule="evenodd"/><path d="M2282.5 929.5 2320.5 967.5" stroke="#263238" stroke-width="3.4375" stroke-linejoin="round" stroke-miterlimit="10" fill="none" fill-rule="evenodd"/><path d="M2419.83 968.436 2419.83 968.436C2418.62 969.7 2416.61 969.859 2415.21 968.8L2399.5 954.973 2402.48 951.5 2419.32 963.97C2420.67 965.101 2420.89 967.046 2419.83 968.436Z" stroke="#263238" stroke-width="3.4375" stroke-linejoin="round" stroke-miterlimit="10" fill="#263238" fill-rule="evenodd"/><path d="M2379.82 934.964C2374.72 941.351 2375.59 950.8 2381.77 956.07 2387.95 961.341 2397.09 960.436 2402.18 954.05 2407.28 947.67 2406.41 938.23 2400.24 932.956 2394.1 927.675 2384.98 928.544 2379.87 934.896 2379.85 934.919 2379.83 934.941 2379.82 934.964ZM2400.54 952.692C2396.17 958.132 2388.36 958.874 2383.1 954.35 2377.83 949.826 2377.12 941.748 2381.49 936.308 2385.86 930.884 2393.64 930.128 2398.9 934.618 2404.19 939.112 2404.95 947.185 2400.61 952.65 2400.59 952.676 2400.57 952.701 2400.54 952.727Z" stroke="#263238" stroke-width="3.4375" stroke-linejoin="round" stroke-miterlimit="10" fill="#263238" fill-rule="evenodd"/><path d="M2792.5 726.5 2830.5 726.5 2830.5 1717.5 2792.5 1717.5Z" stroke="#263238" stroke-width="3.4375" stroke-linejoin="round" stroke-miterlimit="10" fill="#D9D9D9" fill-rule="evenodd"/><path d="M2792.5 924.5 2830.5 924.5 2830.5 1021.5 2792.5 1021.5Z" stroke="#263238" stroke-width="3.4375" stroke-linejoin="round" stroke-miterlimit="10" fill="#8F8F8F" fill-rule="evenodd"/><path d="M1597.5 726.5 2830.5 726.5 2830.5 842.5 1597.5 842.5Z" stroke="#263238" stroke-width="3.4375" stroke-linejoin="round" stroke-miterlimit="10" fill="#1D4369" fill-rule="evenodd"/><path d="M1808.5 726.5 2830.5 726.5 2830.5 767.5 1808.5 767.5Z" stroke="#263238" stroke-width="3.4375" stroke-linejoin="round" stroke-miterlimit="10" fill="#263238" fill-rule="evenodd"/><path d="M2806.5 736.5 2785.5 758.5" stroke="#FFFFFF" stroke-width="3.4375" stroke-linejoin="round" stroke-miterlimit="10" fill="none" fill-rule="evenodd"/><path d="M2785.5 736.5 2806.5 758.5" stroke="#FFFFFF" stroke-width="3.4375" stroke-linejoin="round" stroke-miterlimit="10" fill="none" fill-rule="evenodd"/><path d="M2728.5 738.5 2743.5 738.5 2743.5 754.5 2728.5 754.5Z" stroke="#FFFFFF" stroke-width="3.4375" stroke-linejoin="round" stroke-miterlimit="10" fill="#263238" fill-rule="evenodd"/><path d="M2720.5 742.5 2736.5 742.5 2736.5 758.501 2720.5 758.501Z" stroke="#FFFFFF" stroke-width="3.4375" stroke-linejoin="round" stroke-miterlimit="10" fill="#263238" fill-rule="evenodd"/><path d="M2670.5 748.5 2643.5 748.5" stroke="#FFFFFF" stroke-width="3.4375" stroke-linejoin="round" stroke-miterlimit="10" fill="none" fill-rule="evenodd"/><path d="M1830.5 736.5 1830.5 760.5" stroke="#FFFFFF" stroke-width="3.4375" stroke-linejoin="round" stroke-miterlimit="10" fill="none" fill-rule="evenodd"/><path d="M1842.5 748.5 1817.5 748.5" stroke="#FFFFFF" stroke-width="3.4375" stroke-linejoin="round" stroke-miterlimit="10" fill="none" fill-rule="evenodd"/><path d="M1753.5 1131.5 2007.5 1131.5" stroke="#263238" stroke-width="3.4375" stroke-linejoin="round" stroke-miterlimit="10" fill="none" fill-rule="evenodd"/><path d="M1753.5 1153.5 2075.5 1153.5" stroke="#263238" stroke-width="3.4375" stroke-linejoin="round" stroke-miterlimit="10" fill="none" fill-rule="evenodd"/><path d="M1753.5 1179.5 2418.5 1179.5" stroke="#263238" stroke-width="3.4375" stroke-linejoin="round" stroke-miterlimit="10" fill="none" fill-rule="evenodd"/><path d="M1753.5 1203.5 2418.5 1203.5" stroke="#263238" stroke-width="3.4375" stroke-linejoin="round" stroke-miterlimit="10" fill="none" fill-rule="evenodd"/><path d="M1753.5 1227.5 2418.5 1227.5" stroke="#263238" stroke-width="3.4375" stroke-linejoin="round" stroke-miterlimit="10" fill="none" fill-rule="evenodd"/><path d="M1753.5 1284.5 2007.5 1284.5" stroke="#263238" stroke-width="3.4375" stroke-linejoin="round" stroke-miterlimit="10" fill="none" fill-rule="evenodd"/><path d="M1753.5 1306.5 2075.5 1306.5" stroke="#263238" stroke-width="3.4375" stroke-linejoin="round" stroke-miterlimit="10" fill="none" fill-rule="evenodd"/><path d="M1753.5 1332.5 2418.5 1332.5" stroke="#263238" stroke-width="3.4375" stroke-linejoin="round" stroke-miterlimit="10" fill="none" fill-rule="evenodd"/><path d="M1753.5 1356.5 2418.5 1356.5" stroke="#263238" stroke-width="3.4375" stroke-linejoin="round" stroke-miterlimit="10" fill="none" fill-rule="evenodd"/><path d="M1753.5 1380.5 2418.5 1380.5" stroke="#263238" stroke-width="3.4375" stroke-linejoin="round" stroke-miterlimit="10" fill="none" fill-rule="evenodd"/><path d="M1753.5 1437.5 2007.5 1437.5" stroke="#263238" stroke-width="3.4375" stroke-linejoin="round" stroke-miterlimit="10" fill="none" fill-rule="evenodd"/><path d="M1753.5 1459.5 2075.5 1459.5" stroke="#263238" stroke-width="3.4375" stroke-linejoin="round" stroke-miterlimit="10" fill="none" fill-rule="evenodd"/><path d="M1753.5 1485.5 2418.5 1485.5" stroke="#263238" stroke-width="3.4375" stroke-linejoin="round" stroke-miterlimit="10" fill="none" fill-rule="evenodd"/><path d="M1753.5 1509.5 2418.5 1509.5" stroke="#263238" stroke-width="3.4375" stroke-linejoin="round" stroke-miterlimit="10" fill="none" fill-rule="evenodd"/><path d="M1753.5 1533.5 2418.5 1533.5" stroke="#263238" stroke-width="3.4375" stroke-linejoin="round" stroke-miterlimit="10" fill="none" fill-rule="evenodd"/><path d="M1753.5 1590.5 2007.5 1590.5" stroke="#263238" stroke-width="3.4375" stroke-linejoin="round" stroke-miterlimit="10" fill="none" fill-rule="evenodd"/><path d="M1753.5 1612.5 2075.5 1612.5" stroke="#263238" stroke-width="3.4375" stroke-linejoin="round" stroke-miterlimit="10" fill="none" fill-rule="evenodd"/><path d="M1753.5 1638.5 2418.5 1638.5" stroke="#263238" stroke-width="3.4375" stroke-linejoin="round" stroke-miterlimit="10" fill="none" fill-rule="evenodd"/><path d="M1753.5 1662.5 2418.5 1662.5" stroke="#263238" stroke-width="3.4375" stroke-linejoin="round" stroke-miterlimit="10" fill="none" fill-rule="evenodd"/><path d="M1753.5 1686.5 2418.5 1686.5" stroke="#263238" stroke-width="3.4375" stroke-linejoin="round" stroke-miterlimit="10" fill="none" fill-rule="evenodd"/><path d="M2518.5 1229.5 2637.5 1229.5" stroke="#263238" stroke-width="3.4375" stroke-linejoin="round" stroke-miterlimit="10" fill="none" fill-rule="evenodd"/><path d="M2518.5 1246.5 2637.5 1246.5" stroke="#263238" stroke-width="3.4375" stroke-linejoin="round" stroke-miterlimit="10" fill="none" fill-rule="evenodd"/><path d="M2518.5 1262.5 2751.5 1262.5" stroke="#263238" stroke-width="3.4375" stroke-linejoin="round" stroke-miterlimit="10" fill="none" fill-rule="evenodd"/><path d="M2518.5 1278.5 2751.5 1278.5" stroke="#263238" stroke-width="3.4375" stroke-linejoin="round" stroke-miterlimit="10" fill="none" fill-rule="evenodd"/><path d="M2518.5 1294.5 2751.5 1294.5" stroke="#263238" stroke-width="3.4375" stroke-linejoin="round" stroke-miterlimit="10" fill="none" fill-rule="evenodd"/><path d="M2518.5 1310.5 2751.5 1310.5" stroke="#263238" stroke-width="3.4375" stroke-linejoin="round" stroke-miterlimit="10" fill="none" fill-rule="evenodd"/><path d="M2518.5 1326.5 2751.5 1326.5" stroke="#263238" stroke-width="3.4375" stroke-linejoin="round" stroke-miterlimit="10" fill="none" fill-rule="evenodd"/><path d="M2518.5 1342.5 2751.5 1342.5" stroke="#263238" stroke-width="3.4375" stroke-linejoin="round" stroke-miterlimit="10" fill="none" fill-rule="evenodd"/><path d="M2518.5 1358.5 2751.5 1358.5" stroke="#263238" stroke-width="3.4375" stroke-linejoin="round" stroke-miterlimit="10" fill="none" fill-rule="evenodd"/><path d="M2518.5 1374.5 2751.5 1374.5" stroke="#263238" stroke-width="3.4375" stroke-linejoin="round" stroke-miterlimit="10" fill="none" fill-rule="evenodd"/><path d="M2518.5 1412.5 2637.5 1412.5" stroke="#263238" stroke-width="3.4375" stroke-linejoin="round" stroke-miterlimit="10" fill="none" fill-rule="evenodd"/><path d="M2518.5 1428.5 2637.5 1428.5" stroke="#263238" stroke-width="3.4375" stroke-linejoin="round" stroke-miterlimit="10" fill="none" fill-rule="evenodd"/><path d="M2518.5 1444.5 2751.5 1444.5" stroke="#263238" stroke-width="3.4375" stroke-linejoin="round" stroke-miterlimit="10" fill="none" fill-rule="evenodd"/><path d="M2518.5 1460.5 2751.5 1460.5" stroke="#263238" stroke-width="3.4375" stroke-linejoin="round" stroke-miterlimit="10" fill="none" fill-rule="evenodd"/><path d="M2518.5 1476.5 2751.5 1476.5" stroke="#263238" stroke-width="3.4375" stroke-linejoin="round" stroke-miterlimit="10" fill="none" fill-rule="evenodd"/><path d="M2518.5 1493.5 2751.5 1493.5" stroke="#263238" stroke-width="3.4375" stroke-linejoin="round" stroke-miterlimit="10" fill="none" fill-rule="evenodd"/><path d="M2518.5 1509.5 2751.5 1509.5" stroke="#263238" stroke-width="3.4375" stroke-linejoin="round" stroke-miterlimit="10" fill="none" fill-rule="evenodd"/><path d="M2518.5 1525.5 2751.5 1525.5" stroke="#263238" stroke-width="3.4375" stroke-linejoin="round" stroke-miterlimit="10" fill="none" fill-rule="evenodd"/><path d="M2518.5 1541.5 2751.5 1541.5" stroke="#263238" stroke-width="3.4375" stroke-linejoin="round" stroke-miterlimit="10" fill="none" fill-rule="evenodd"/><path d="M2518.5 1557.5 2751.5 1557.5" stroke="#263238" stroke-width="3.4375" stroke-linejoin="round" stroke-miterlimit="10" fill="none" fill-rule="evenodd"/><path d="M2858.5 1949.5 2901.5 1949.5" stroke="#263238" stroke-width="3.4375" stroke-linejoin="round" stroke-miterlimit="10" fill="none" fill-rule="evenodd"/><path d="M1737.5 1949.5 2829.5 1949.5" stroke="#263238" stroke-width="3.4375" stroke-linejoin="round" stroke-miterlimit="10" fill="none" fill-rule="evenodd"/><path d="M1495.5 1949.5 1708.5 1949.5" stroke="#263238" stroke-width="3.4375" stroke-linejoin="round" stroke-miterlimit="10" fill="none" fill-rule="evenodd"/><path d="M2208.42 1882.02C2208.42 1882.02 2245.31 1884.2 2254 1882.02 2262.69 1879.84 2280.07 1865.67 2282.24 1876.58 2284.41 1887.49 2272.48 1902.76 2265 1911.45 2257.52 1920.14 2227.08 1927.83 2218.32 1932.23 2209.56 1936.63 2196.6 1947.5 2185.74 1947.5 2174.88 1947.5 2168.5 1911.49 2168.5 1911.49 2168.5 1911.49 2201.05 1891.89 2209.87 1877.69" stroke="#263238" stroke-width="3.4375" stroke-linejoin="round" stroke-miterlimit="10" fill="#FFFFFF" fill-rule="evenodd"/><path d="M2280.55 1873.5C2258.36 1914.4 2221.8 1921.35 2221.8 1921.35L2175.5 1936.79C2178.2 1942.77 2181.58 1947.5 2185.49 1947.5 2196.37 1947.5 2209.43 1936.62 2218.14 1932.26 2226.85 1927.91 2257.33 1920.28 2264.93 1911.54 2272.53 1902.8 2284.52 1887.63 2282.21 1876.75 2282.1 1875.49 2281.5 1874.33 2280.55 1873.5Z" stroke="#263238" stroke-width="3.4375" stroke-linejoin="round" stroke-miterlimit="10" fill="#FFFFFF" fill-rule="evenodd"/><path d="M1818.15 1854.5C1818.15 1854.5 1790.06 1886.63 1787.66 1896.01 1785.43 1905 1806.88 1918.08 1812.43 1922.02 1827.04 1932.19 1842.97 1940.27 1859.77 1946.03 1865.74 1948.1 1894.99 1955.06 1891.15 1940.42 1888.31 1929.6 1865.84 1917.11 1862.99 1910.74 1860.15 1904.38 1855.46 1891.96 1855.46 1891.96Z" stroke="#263238" stroke-width="3.4375" stroke-linejoin="round" stroke-miterlimit="10" fill="#FFFFFF" fill-rule="evenodd"/><path d="M1812.53 1922.1C1827.2 1932.24 1843.19 1940.3 1860.06 1946.05 1865.26 1947.84 1888.1 1953.29 1891.5 1945.15 1881.18 1944.56 1861.37 1941.29 1836.02 1926.76 1819.22 1917.37 1803.24 1906.58 1788.25 1894.5 1788.02 1895.04 1787.83 1895.59 1787.66 1896.16 1785.43 1905.09 1806.96 1918.13 1812.53 1922.1Z" stroke="#263238" stroke-width="3.4375" stroke-linejoin="round" stroke-miterlimit="10" fill="#FFFFFF" fill-rule="evenodd"/><path d="M1894.37 1454.17 1906.11 1540.6 1916.06 1722.97C1916.06 1722.97 1885.69 1752.15 1868.36 1771.62 1851.04 1791.09 1811.5 1858.98 1811.5 1858.98 1811.5 1858.98 1814.63 1875.97 1834.06 1887.55 1853.48 1899.12 1864.02 1897.33 1864.02 1897.33L1878.04 1872.99 1883.07 1862C1883.07 1862 1996.35 1753.25 1998.52 1739.17 2000.69 1725.1 2011.92 1572.91 2011.92 1572.91L2100.47 1702.43C2100.47 1702.43 2111.35 1787.83 2119.96 1808.43 2128.57 1829.04 2164.46 1896.03 2164.46 1896.03L2168.8 1911.14C2178.16 1914.14 2188.42 1912.1 2195.9 1905.75 2203.4 1898.82 2209.98 1890.97 2215.5 1882.4L2203.48 1867.91 2201.31 1858.15C2201.31 1858.15 2172.03 1684.06 2165.53 1663.53 2159.02 1642.99 2079.66 1465.06 2079.66 1465.06L2062.44 1417.5C2062.44 1417.5 2046.19 1428.28 1996.28 1443.43 1946.37 1458.57 1894.37 1454.17 1894.37 1454.17Z" stroke="#263238" stroke-width="3.4375" stroke-linejoin="round" stroke-miterlimit="10" fill="#263238" fill-rule="evenodd"/><path d="M2004.98 1472.18C2041.31 1455.77 2058.48 1439.39 2066.5 1428.67L2062.41 1417.5C2062.41 1417.5 2046.17 1428.19 1996.31 1443.21 1951.58 1456.62 1905.51 1454.64 1896.19 1454.07L1894.5 1454.3 1897.7 1477.22C1932.7 1489.8 1971.34 1487.99 2004.98 1472.18Z" stroke="#263238" stroke-width="3.4375" stroke-linejoin="round" stroke-miterlimit="10" fill="#1D4369" fill-rule="evenodd"/><path d="M1875.7 1200.59 1790.5 1264.04 1887.04 1445.44C1888 1452.22 1891.49 1458.37 1896.8 1462.66 1905.73 1470 1964.14 1468.38 1985.23 1461.87 2006.92 1454.38 2027.84 1444.85 2047.72 1433.39 2056.66 1427.71 2068.82 1415.48 2065.56 1404.91 2063.37 1398.08 2060.39 1391.53 2056.66 1385.41L2039.48 1335.78C2039.48 1335.78 2106.82 1339.84 2115.75 1339.84 2124.68 1339.84 2155.5 1261.76 2155.5 1261.76 2155.5 1261.76 2146.57 1260.94 2143.34 1255.25 2141.31 1251.33 2139.77 1247.18 2138.73 1242.89 2129.31 1248.37 2119.56 1253.27 2109.53 1257.56 2092.35 1264.86 2074.63 1266.48 2067.34 1263.24 2060.06 1260.01 2017.01 1220.95 2007.29 1208.72 1997.56 1196.49 1995.92 1191.5 1992.69 1191.5 1989.46 1191.5 1929.4 1195.6 1922.08 1195.6 1914.77 1195.6 1875.7 1200.59 1875.7 1200.59Z" stroke="#263238" stroke-width="3.4375" stroke-linejoin="round" stroke-miterlimit="10" fill="#1D4369" fill-rule="evenodd"/><path d="M2144.19 1249.43C2142.13 1245.66 2140.52 1241.65 2139.41 1237.5L2136.84 1240.44C2136.84 1240.44 2123.74 1250.22 2127.03 1264.12 2129.08 1272.8 2139.13 1275.74 2148.01 1276.5 2153 1264.78 2156.5 1255.96 2156.5 1255.96 2156.5 1255.96 2147.45 1255.13 2144.19 1249.43Z" stroke="#263238" stroke-width="3.4375" stroke-linejoin="round" stroke-miterlimit="10" fill="#1D4369" fill-rule="evenodd"/><path d="M2005.5 1238.5 2001.5 1226.5" stroke="#263238" stroke-width="3.4375" stroke-linejoin="round" stroke-miterlimit="10" fill="none" fill-rule="evenodd"/><path d="M2039.5 1335.5 2009.5 1249.5" stroke="#263238" stroke-width="3.4375" stroke-linejoin="round" stroke-miterlimit="10" fill="none" fill-rule="evenodd"/><path d="M1876.09 1510.99 1876.09 1510.99C1856.62 1494.87 1853.89 1466 1870.01 1446.52 1870.3 1446.16 1870.6 1445.81 1870.9 1445.46L2203.65 1063.5 2254.5 1105.61 1941.41 1503.84C1925.86 1523.8 1897.08 1527.38 1877.13 1511.82 1876.78 1511.55 1876.43 1511.27 1876.09 1510.99Z" stroke="#263238" stroke-width="3.4375" stroke-linejoin="round" stroke-miterlimit="10" fill="#263238" fill-rule="evenodd"/><path d="M2115.26 1165.5 1871.03 1445.55C1854.9 1465.01 1857.6 1493.86 1877.07 1509.98 1896.54 1526.1 1925.4 1523.39 1941.53 1503.93L2172.5 1210.42Z" stroke="#263238" stroke-width="3.4375" stroke-linejoin="round" stroke-miterlimit="10" fill="#FFFFFF" fill-rule="evenodd"/><path d="M2481.46 780.78C2392.14 706.798 2259.76 719.228 2185.78 808.544 2111.8 897.859 2124.23 1030.24 2213.54 1104.22 2302.86 1178.2 2435.24 1165.77 2509.22 1076.46 2509.24 1076.44 2509.25 1076.42 2509.27 1076.4 2583.2 987.083 2570.75 854.745 2481.46 780.78ZM2232.89 1080.94C2156.44 1017.64 2145.78 904.359 2209.07 827.909 2272.37 751.459 2385.65 740.794 2462.1 804.089 2538.55 867.383 2549.22 980.667 2485.93 1057.12 2422.63 1133.57 2309.35 1144.23 2232.9 1080.94 2232.89 1080.94 2232.89 1080.94 2232.89 1080.94Z" stroke="#263238" stroke-width="3.4375" stroke-linejoin="round" stroke-miterlimit="10" fill="#263238" fill-rule="evenodd"/><path d="M2155.36 1261.74 2186.22 1213.14C2186.22 1213.14 2197.53 1191.26 2200.79 1187.21 2204.05 1183.16 2216.97 1178.29 2206.45 1178.29 2195.92 1178.29 2192.73 1184.77 2192.73 1184.77L2192.73 1167.63C2192.73 1162.76 2192.73 1150.72 2186.29 1151.54 2179.84 1152.36 2182.14 1161.83 2180.9 1171.09 2180.35 1175.17 2175.72 1193.66 2175.72 1193.66L2168.87 1166.39C2168.22 1163.65 2165.63 1161.82 2162.83 1162.14 2161.49 1162.34 2160.47 1162.96 2160.47 1164.47 2161.44 1171.83 2162.79 1179.13 2164.51 1186.35L2162.01 1200.07C2162.01 1200.07 2158.58 1178.63 2153.61 1172.94 2151.41 1170.44 2147.57 1175.07 2149.18 1179.11 2150.8 1183.16 2151.55 1205.93 2151.55 1205.93L2150.73 1215.64C2150.73 1215.64 2145.07 1205.93 2141.85 1201.06 2138.62 1196.19 2133.72 1198.63 2136.15 1205.93 2138.59 1213.24 2144.25 1225.38 2144.25 1225.38L2138.49 1243.08C2138.49 1243.08 2129.43 1270.62 2155.36 1261.74Z" stroke="#263238" stroke-width="3.4375" stroke-linejoin="round" stroke-miterlimit="10" fill="#FFFFFF" fill-rule="evenodd"/><path d="M2192.5 1184.5 2187.5 1200.5" stroke="#263238" stroke-width="3.4375" stroke-linejoin="round" stroke-miterlimit="10" fill="none" fill-rule="evenodd"/><path d="M1805.71 1254.5C1805.71 1254.5 1786.33 1259.63 1786.33 1267.75 1786.33 1275.88 1786.33 1444.99 1785.5 1450.67 1784.68 1456.35 1962.45 1431.15 1962.45 1431.15L1966.5 1403.61 1857.74 1381.65 1856.91 1303.58" stroke="#263238" stroke-width="3.4375" stroke-linejoin="round" stroke-miterlimit="10" fill="#1D4369" fill-rule="evenodd"/><path d="M1948.3 1399.5 1947.5 1432.16 1948.06 1432.5 1962.37 1430.55 1966.5 1403.19Z" stroke="#263238" stroke-width="3.4375" stroke-linejoin="round" stroke-miterlimit="10" fill="#1D4369" fill-rule="evenodd"/><path d="M1965.94 1402.95C1965.94 1402.95 1988.68 1373.5 1998.44 1373.5 2008.21 1373.5 2022.8 1374.33 2025.96 1374.33 2029.12 1374.33 2036.52 1372.67 2032.46 1378.42 2028.4 1384.17 2014.58 1383.31 2014.58 1383.31L2032.67 1393.25C2037.13 1395.67 2038.81 1401.28 2036.4 1405.78 2036.02 1406.49 2035.55 1407.15 2035.01 1407.73L2035.01 1407.73C2030.91 1411.82 2020.35 1411.82 2020.35 1411.82 2020.35 1411.82 2009 1430.64 2001.68 1432.26 1994.35 1433.89 1963.5 1426.55 1963.5 1426.55Z" stroke="#263238" stroke-width="3.4375" stroke-linejoin="round" stroke-miterlimit="10" fill="#FFFFFF" fill-rule="evenodd"/><path d="M1947.38 1254.5 1949.5 1201.4 1928.5 1194.5 1931.98 1215.87 1947.38 1254.5Z" stroke="#263238" stroke-width="3.4375" stroke-linejoin="round" stroke-miterlimit="10" fill="#1D4369" fill-rule="evenodd"/><path d="M1949.23 1201.5 1964.5 1232.5 1948.5 1231.1 1949.23 1201.5Z" stroke="#263238" stroke-width="3.4375" stroke-linejoin="round" stroke-miterlimit="10" fill="#1D4369" fill-rule="evenodd"/><path d="M1958.75 1160.46C1951.88 1162.52 1935.24 1202.65 1935.24 1202.65L1947 1254.5 1928.36 1228.21 1923.24 1202.95 1879.3 1184.65 1879.99 1155.61C1876 1153.44 1872.16 1151.01 1868.51 1148.31 1860.69 1142.88 1854.02 1135.96 1848.88 1127.94 1839.22 1111.36 1825.4 1085.79 1846.82 1058.13 1867.44 1031.42 1888.83 1029.84 1912.14 1028.5L1914.68 1028.5C1914.68 1028.5 1941.63 1045.12 1942.18 1053.41 1942.73 1061.7 1946.34 1073.47 1953.94 1078.29 1961.54 1083.11 1971.89 1077.6 1971.89 1087.96 1971.53 1094.58 1968.53 1100.78 1963.57 1105.16 1963.57 1105.16 1970.44 1136.99 1973.88 1147.35 1977.32 1157.71 1965.66 1158.36 1958.75 1160.46Z" stroke="#263238" stroke-width="3.4375" stroke-linejoin="round" stroke-miterlimit="10" fill="#FFFFFF" fill-rule="evenodd"/><path d="M1938.33 1078.55C1940.13 1081.18 1940.55 1083.98 1939.23 1084.78 1937.91 1085.58 1935.44 1084.12 1933.67 1081.45 1931.9 1078.78 1931.45 1076.02 1932.74 1075.22 1934.02 1074.42 1936.52 1075.92 1938.33 1078.55Z" fill="#263238" fill-rule="evenodd"/><path d="M1922.5 1077.5C1922.5 1077.5 1923.2 1065.5 1934.5 1065.5" stroke="#263238" stroke-width="3.4375" stroke-linejoin="round" stroke-miterlimit="10" fill="none" fill-rule="evenodd"/><path d="M1954.5 1118.71C1954.5 1118.71 1935.96 1123.03 1932.5 1111.5" stroke="#263238" stroke-width="3.4375" stroke-linejoin="round" stroke-miterlimit="10" fill="none" fill-rule="evenodd"/><path d="M1908.67 1053.24C1914.92 1059.42 1891.98 1074.6 1888.53 1081.54 1885.07 1088.48 1891.33 1099.48 1891.98 1104.32 1892.64 1109.16 1876.06 1122.94 1876.06 1122.94L1869.77 1129.16 1874.64 1148.5C1874.64 1148.5 1872.43 1148.5 1868.67 1148.12 1860.81 1142.7 1854.11 1135.79 1848.94 1127.78 1839.24 1111.23 1825.35 1085.7 1846.87 1058.08 1867.6 1031.42 1889.08 1029.84 1912.5 1028.5 1908.46 1031.21 1903.35 1032.42 1900.45 1035.37 1896.16 1039.39 1902.41 1046.98 1908.67 1053.24Z" stroke="#263238" stroke-width="3.4375" stroke-linejoin="round" stroke-miterlimit="10" fill="#A6A6A6" fill-rule="evenodd"/><path d="M1884.02 1126.05C1884.02 1126.05 1873.71 1110.32 1861.21 1119.24 1848.7 1128.16 1871.51 1148.66 1875.71 1152.06 1879.9 1155.47 1892.89 1142.49 1892.89 1142.49 1897.71 1149.4 1905.14 1154.09 1913.5 1155.5" stroke="#263238" stroke-width="3.4375" stroke-linejoin="round" stroke-miterlimit="10" fill="#FFFFFF" fill-rule="evenodd"/><path d="M1897.25 1040.4C1892.54 1044.28 1915.73 1052.58 1909.51 1060.66 1903.3 1068.74 1894.47 1078.26 1889.17 1085.44 1883.87 1092.62 1894.81 1100.4 1893.19 1105.46 1891.57 1110.52 1887.17 1115.03 1882.02 1117.52 1847.67 1111.39 1862.73 1114.49 1859.72 1118.66 1856.72 1122.82 1856.4 1133.43 1863.99 1142.5 1857.83 1141.23 1826.66 1127.36 1822.79 1111.04 1818.91 1094.72 1823.47 1063.25 1840.72 1044.57 1851.49 1033.07 1864.1 1023.48 1878.04 1016.18 1878.04 1016.18 1855.95 1016.87 1864.29 1010.63 1872.64 1004.39 1893.29 1001.64 1907.11 1008.56 1914.68 1011.51 1918.44 1020.05 1915.5 1027.65 1915.46 1027.74 1915.43 1027.83 1915.39 1027.93L1897.25 1040.4Z" stroke="#263238" stroke-width="3.4375" stroke-linejoin="round" stroke-miterlimit="10" fill="#263238" fill-rule="evenodd"/><path d="M1875.71 1180.5 1861.5 1210.63 1917.1 1242.5 1926.5 1200.82 1875.71 1180.5Z" stroke="#263238" stroke-width="3.4375" stroke-linejoin="round" stroke-miterlimit="10" fill="#1D4369" fill-rule="evenodd"/><text font-family="Calibri,Calibri_MSFontService,sans-serif" font-weight="400" font-size="55" transform="matrix(1 0 0 1 1797.93 970)">Career Center</text></g></svg>